<svg width="680" height="85" viewBox="140 155 680 90" fill="none" xmlns="http://www.w3.org/2000/svg">

<path d="M147.223 221.831C166.637 221.831 174.323 190.916 193.734 190.916V160C174.323 160 166.637 190.916 147.223 190.916V221.831Z" fill="white"/>
<path d="M193.769 221.831C213.179 221.831 220.869 190.916 240.28 190.916V160C220.869 160 213.179 190.916 193.769 190.916V221.831Z" fill="white"/>
<path d="M240.28 221.831C244.392 221.831 248.335 220.203 251.243 217.304C254.15 214.405 255.784 210.473 255.784 206.373C255.784 202.274 254.15 198.342 251.243 195.443C248.335 192.544 244.392 190.916 240.28 190.916V221.831Z" fill="white"/>
<path d="M332.111 160H356.562V222.065H340.557V172.856L327.395 222.065H310.67L298.662 173.223V222.065H285.784V160H310.687L320.721 202.388L332.111 160Z" fill="white"/>
<path d="M397.036 177.742H412.088L385.295 239.807H370.611L378.438 221.798L359.372 177.742H376.097L385.881 204.606L397.036 177.742Z" fill="white"/>
<path d="M411.704 207.624H428.595C428.779 212.493 431.439 215.862 436.607 215.862C440.069 215.862 442.477 214.444 442.477 212.043C442.477 208.708 439.132 207.707 433.228 205.84L425.133 203.355C416.855 200.704 412.59 196.435 412.59 190.015C412.59 181.311 420.685 176.358 434.917 176.358C448.782 176.358 456.877 181.361 457.947 190.449H442.477C442.311 188.582 441.413 186.857 439.98 185.645C438.546 184.434 436.691 183.835 434.817 183.979C431.171 183.979 429.482 185.646 429.482 187.431C429.482 190.365 433.228 191.516 438.379 193.117L446.558 195.685C451.19 197.102 459.369 200.204 459.369 208.891C459.369 217.579 451.19 223.515 435.804 223.515C421.487 223.482 413.125 217.896 411.704 207.624Z" fill="white"/>
<path d="M490.493 186.68H482.666V208.358C482.666 212.343 483.201 212.877 489.072 212.877H490.493V222.098H480.459C469.705 222.098 466.594 218.996 466.594 206.857V186.68H461.225V177.809H466.661V168.054L482.666 161.851V177.809H490.493V186.68Z" fill="white"/>
<path d="M541.169 202.305H509.894C510.245 213.11 512.921 215.511 517.186 215.511C521.183 215.511 523.24 213.027 523.775 207.624H540.316C539.246 216.929 531.853 223.482 517.186 223.482C500.177 223.482 493.169 213.36 493.169 200.354C493.169 186.697 500.378 176.325 517.621 176.325C532.305 176.325 541.186 185.546 541.186 200.621L541.169 202.305ZM510.312 194.317H524.009V194.051C524.009 186.614 520.815 184.296 517.52 184.296C512.804 184.296 510.58 188.815 510.312 194.317Z" fill="white"/>
<path d="M590.573 192.366V222.065H574.568V195.018C574.568 189.598 572.896 186.947 568.698 186.947C564.5 186.947 562.208 189.865 562.208 196.952V221.965H546.203V185.98C546.203 183.945 546.203 179.86 546.019 177.742H561.941V183.679C563.981 179.427 568.631 176.325 575.722 176.325C585.238 176.325 590.573 181.111 590.573 192.366Z" fill="white"/>
<path d="M632.603 211.159H660.834V222.065H615.677V160H632.569L632.603 211.159Z" fill="white"/>
<path d="M693.865 222.065V215.862C691.289 220.214 686.841 222.698 679.448 222.698C669.313 222.698 663.811 217.546 663.811 209.575C663.811 200.971 670.501 198.219 680.251 196.235L684.265 195.435C691.457 194.017 693.597 192.867 693.597 189.415C693.597 186.313 691.641 184.262 688.078 184.262C687.249 184.166 686.409 184.258 685.62 184.532C684.831 184.805 684.115 185.253 683.525 185.842C682.934 186.431 682.485 187.145 682.211 187.931C681.936 188.717 681.844 189.555 681.94 190.382H665.433C665.868 180.727 673.076 176.292 688.195 176.292C703.85 176.292 709.268 181.694 709.268 190.999V215.028C709.268 217.946 709.268 220.347 709.536 222.115L693.865 222.065ZM693.246 205.573V200.254C692.075 200.787 690.654 201.321 688.346 202.121L687.008 202.572C682.659 203.989 680.519 204.956 680.519 208.158C680.519 211.076 682.476 213.16 686.305 213.16C690.721 213.11 693.213 210.192 693.213 205.573H693.246Z" fill="white"/>
<path d="M762.436 199.553C762.436 212.76 755.311 222.598 742.367 222.598C740.278 222.673 738.197 222.3 736.264 221.506C734.331 220.713 732.591 219.516 731.161 217.996L729.923 222.065H715.691V160H731.696V182.261C733.084 180.396 734.897 178.885 736.984 177.853C739.072 176.821 741.375 176.297 743.704 176.325C756.8 176.325 762.436 186.163 762.436 199.553ZM744.909 199.553C744.909 189.715 742.166 185.63 737.985 185.63C733.168 185.63 731.295 189.715 731.295 199.553C731.295 207.524 733.151 213.294 737.985 213.294C743.102 213.36 744.959 207.524 744.959 199.553H744.909Z" fill="white"/>
<path d="M765.112 207.624H782.004C782.188 212.493 784.847 215.862 790.015 215.862C793.477 215.862 795.869 214.444 795.869 212.043C795.869 208.708 792.524 207.707 786.62 205.84L778.542 203.355C770.18 200.704 765.998 196.435 765.998 190.015C765.998 181.311 774.093 176.358 788.326 176.358C802.19 176.358 810.285 181.361 811.356 190.449H795.885C795.723 188.584 794.83 186.858 793.398 185.646C791.967 184.435 790.114 183.836 788.242 183.979C784.596 183.979 782.907 185.646 782.907 187.431C782.907 190.365 786.637 191.516 791.805 193.117L799.983 195.685C804.616 197.102 812.794 200.204 812.794 208.891C812.794 217.579 804.616 223.515 789.229 223.515C774.896 223.482 766.534 217.896 765.112 207.624Z" fill="white"/>
</svg>
