<svg width="8" height="9" viewBox="0 0 8 9" fill="none" xmlns="http://www.w3.org/2000/svg">
    <path d="M6.37778 0.927734L5.28699 2.01853L6.37778 3.10932L7.46857 2.01853L6.37778 0.927734Z"
        fill="#030206" />
    <path
        d="M6.37843 0.955159L7.44184 2.01857L6.37843 3.08198L5.31502 2.01857L6.37843 0.955159ZM6.37843 0.900391L5.26025 2.01857L6.37843 3.13675L7.49661 2.01857L6.37843 0.900391Z"
        fill="#F3FF97" />
    <path d="M6.26902 0.826172L5.17822 1.91697L6.26902 3.00776L7.35981 1.91697L6.26902 0.826172Z"
        fill="#030206" />
    <path
        d="M6.26771 0.853596L7.33112 1.91701L6.26771 2.98042L5.2043 1.91701L6.26771 0.853596ZM6.26771 0.798828L5.14954 1.91701L6.26771 3.03518L7.38589 1.91701L6.26771 0.798828Z"
        fill="#F3FF97" />
    <path d="M6.15622 0.726562L5.06543 1.81736L6.15622 2.90815L7.24702 1.81736L6.15622 0.726562Z"
        fill="#030206" />
    <path
        d="M6.157 0.753987L7.22041 1.8174L6.157 2.88081L5.09359 1.8174L6.157 0.751705V0.753987ZM6.157 0.699219L5.03882 1.8174L6.157 2.93557L7.27517 1.8174L6.157 0.699219Z"
        fill="#F3FF97" />
    <path d="M6.04148 0.636719L4.95068 1.72751L6.04148 2.81831L7.13227 1.72751L6.04148 0.636719Z"
        fill="#030206" />
    <path
        d="M6.0381 0.664143L7.10151 1.72755L6.0381 2.79096L4.97469 1.72755L6.0381 0.664143ZM6.0381 0.609375L4.91992 1.72755L6.0381 2.84573L7.15628 1.72755L6.0381 0.609375Z"
        fill="#F3FF97" />
    <path d="M5.92246 0.550781L4.83167 1.64158L5.92246 2.73237L7.01325 1.64158L5.92246 0.550781Z"
        fill="#030206" />
    <path
        d="M5.91908 0.575923L6.98249 1.63933L5.91908 2.70274L4.85567 1.63933L5.91908 0.575923ZM5.91908 0.523438L4.8009 1.64162L5.91908 2.75979L7.03726 1.64162L5.91908 0.523438Z"
        fill="#F3FF97" />
    <path d="M5.79538 0.470703L4.70459 1.5615L5.79538 2.65229L6.88618 1.5615L5.79538 0.470703Z"
        fill="#030206" />
    <path
        d="M5.79811 0.499752L6.86152 1.56316L5.79811 2.62657L4.7347 1.56316L5.79811 0.499752ZM5.79811 0.447266L4.67993 1.56544L5.79811 2.68362L6.91629 1.56544L5.79811 0.447266Z"
        fill="#F3FF97" />
    <path d="M5.67026 0.398438L4.57947 1.48923L5.67026 2.58003L6.76106 1.48923L5.67026 0.398438Z"
        fill="#030206" />
    <path
        d="M5.67299 0.425533L6.7364 1.48894L5.67299 2.55235L4.60958 1.48894L5.67299 0.425533ZM5.67299 0.373047L4.55481 1.49122L5.67299 2.6094L6.79117 1.49122L5.67299 0.373047Z"
        fill="#F3FF97" />
    <path d="M5.54306 0.333984L4.45227 1.42478L5.54306 2.51557L6.63386 1.42478L5.54306 0.333984Z"
        fill="#030206" />
    <path
        d="M5.54591 0.361409L6.60932 1.42482L5.54591 2.48823L4.4825 1.42482L5.54591 0.361409ZM5.54591 0.306641L4.42773 1.42482L5.54591 2.543L6.66409 1.42482L5.54591 0.306641Z"
        fill="#F3FF97" />
    <path d="M5.41391 0.273438L4.32312 1.36423L5.41391 2.45503L6.50471 1.36423L5.41391 0.273438Z"
        fill="#030206" />
    <path
        d="M5.41456 0.302815L6.47797 1.36622L5.41456 2.42963L4.35115 1.36622L5.41456 0.302815ZM5.41456 0.248047L4.29639 1.36622L5.41456 2.4844L6.53274 1.36622L5.41456 0.248047Z"
        fill="#F3FF97" />
    <path d="M5.28061 0.220703L4.18982 1.3115L5.28061 2.40229L6.37141 1.3115L5.28061 0.220703Z"
        fill="#030206" />
    <path
        d="M5.28126 0.247798L6.34467 1.31121L5.28126 2.3769L4.21785 1.31349L5.28126 0.247798ZM5.28126 0.195312L4.16309 1.31349L5.28126 2.43167L6.39944 1.31349L5.28126 0.195312Z"
        fill="#F3FF97" />
    <path d="M5.14731 0.175781L4.05652 1.26658L5.14731 2.35737L6.23811 1.26658L5.14731 0.175781Z"
        fill="#030206" />
    <path
        d="M5.14796 0.203205L6.21137 1.26662L5.14796 2.33003L4.08455 1.26662L5.14796 0.203205ZM5.14796 0.148438L4.02979 1.26662L5.14796 2.38479L6.26614 1.26662L5.14796 0.148438Z"
        fill="#F3FF97" />
    <path d="M5.01194 0.134766L3.92114 1.22556L5.01194 2.31635L6.10273 1.22556L5.01194 0.134766Z"
        fill="#030206" />
    <path
        d="M5.01063 0.161861L6.07404 1.22527L5.01063 2.28868L3.94722 1.22527L5.01063 0.161861ZM5.01063 0.109375L3.89246 1.22755L5.01063 2.34573L6.12881 1.22755L5.01063 0.109375Z"
        fill="#F3FF97" />
    <path d="M4.87449 0.101562L3.78369 1.19236L4.87449 2.28315L5.96528 1.19236L4.87449 0.101562Z"
        fill="#030206" />
    <path
        d="M4.87526 0.126705L5.93867 1.19011L4.87526 2.25581L3.81185 1.1924L4.87526 0.126705ZM4.87526 0.0742188L3.75708 1.1924L4.87526 2.31057L5.99344 1.1924L4.87526 0.0742188Z"
        fill="#F3FF97" />
    <path d="M4.73508 0.0722656L3.64429 1.16306L4.73508 2.25385L5.82588 1.16306L4.73508 0.0722656Z"
        fill="#030206" />
    <path
        d="M4.73573 0.0993609L5.79914 1.16277L4.73573 2.22618L3.67232 1.16277L4.73573 0.0993609ZM4.73573 0.046875L3.61755 1.16505L4.73573 2.28323L5.85391 1.16505L4.73573 0.046875Z"
        fill="#F3FF97" />
    <path d="M4.59555 0.0507812L3.50476 1.14158L4.59555 2.23237L5.68635 1.14158L4.59555 0.0507812Z"
        fill="#030206" />
    <path
        d="M4.59633 0.0782054L5.65974 1.14162L4.59633 2.20503L3.53292 1.14162L4.59633 0.0782054ZM4.59633 0.0234375L3.47815 1.14162L4.59633 2.25979L5.71451 1.14162L4.59633 0.0234375Z"
        fill="#F3FF97" />
    <path d="M4.45615 0.0371094L3.36536 1.1279L4.45615 2.2187L5.54694 1.1279L4.45615 0.0371094Z"
        fill="#030206" />
    <path
        d="M4.45692 0.0622515L5.52033 1.12566L4.45692 2.19135L3.39351 1.12794L4.45692 0.0622515ZM4.45692 0.00976562L3.33875 1.12794L4.45692 2.24612L5.5751 1.12794L4.45692 0.00976562Z"
        fill="#F3FF97" />
    <path d="M4.31675 0.0292969L3.22595 1.12009L4.31675 2.21088L5.40754 1.12009L4.31675 0.0292969Z"
        fill="#030206" />
    <path
        d="M4.3174 0.054439L5.38081 1.11785L4.3174 2.18126L3.25399 1.11785L4.3174 0.054439ZM4.3174 0.00195312L3.19922 1.12013L4.3174 2.23831L5.43557 1.12013L4.3174 0.00195312Z"
        fill="#F3FF97" />
    <path d="M4.17514 0.0273438L3.08435 1.11814L4.17514 2.20893L5.26594 1.11814L4.17514 0.0273438Z"
        fill="#030206" />
    <path
        d="M4.17592 0.0547679L5.23933 1.11818L4.17592 2.18159L3.11251 1.11818L4.17592 0.0547679ZM4.17592 0L3.05774 1.11818L4.17592 2.23636L5.2941 1.11818L4.17592 0Z"
        fill="#F3FF97" />
    <path d="M4.03367 0.03125L2.94287 1.12204L4.03367 2.21284L5.12446 1.12204L4.03367 0.03125Z"
        fill="#030206" />
    <path
        d="M4.03444 0.0586741L5.09785 1.12208L4.03444 2.18549L2.97103 1.12208L4.03444 0.0586741ZM4.03444 0.00390625L2.91626 1.12208L4.03444 2.24026L5.15262 1.12208L4.03444 0.00390625Z"
        fill="#F3FF97" />
    <path d="M3.89634 0.0410156L2.80554 1.13181L3.89634 2.2226L4.98713 1.13181L3.89634 0.0410156Z"
        fill="#030206" />
    <path
        d="M3.89491 0.0681109L4.95832 1.13152L3.89491 2.19493L2.8315 1.13152L3.89491 0.0681109ZM3.89491 0.015625L2.77673 1.1338L3.89491 2.25198L5.01309 1.1338L3.89491 0.015625Z"
        fill="#F3FF97" />
    <path d="M3.75473 0.0585938L2.66394 1.14939L3.75473 2.24018L4.84553 1.14939L3.75473 0.0585938Z"
        fill="#030206" />
    <path
        d="M3.75343 0.0860179L4.81684 1.14943L3.75343 2.21284L2.69002 1.14943L3.75343 0.0860179ZM3.75343 0.03125L2.63525 1.14943L3.75343 2.26761L4.87161 1.14943L3.75343 0.03125Z"
        fill="#F3FF97" />
    <path d="M3.61741 0.0820312L2.52661 1.17283L3.61741 2.26362L4.7082 1.17283L3.61741 0.0820312Z"
        fill="#030206" />
    <path
        d="M3.61403 0.109455L4.67744 1.17287L3.61403 2.23628L2.55062 1.17287L3.61403 0.109455ZM3.61403 0.0546875L2.49585 1.17287L3.61403 2.29104L4.73221 1.17287L3.61403 0.0546875Z"
        fill="#F3FF97" />
    <path d="M3.47788 0.111328L2.38708 1.20212L3.47788 2.29292L4.56867 1.20212L3.47788 0.111328Z"
        fill="#030206" />
    <path
        d="M3.47865 0.138752L4.54206 1.20216L3.47865 2.26557L2.41524 1.20216L3.47865 0.138752ZM3.47865 0.0839844L2.36047 1.20216L3.47865 2.32034L4.59683 1.20216L3.47865 0.0839844Z"
        fill="#F3FF97" />
    <path d="M3.34055 0.148438L2.24976 1.23923L3.34055 2.33003L4.43134 1.23923L3.34055 0.148438Z"
        fill="#030206" />
    <path
        d="M3.3412 0.175862L4.40461 1.23927L3.3412 2.30268L2.27779 1.23927L3.3412 0.175862ZM3.3412 0.121094L2.22302 1.23927L3.3412 2.35745L4.45938 1.23927L3.3412 0.121094Z"
        fill="#F3FF97" />
    <path d="M3.20725 0.191406L2.11646 1.2822L3.20725 2.37299L4.29804 1.2822L3.20725 0.191406Z"
        fill="#030206" />
    <path
        d="M3.20595 0.216548L4.26936 1.27996L3.20595 2.34565L2.14254 1.28224L3.20595 0.216548ZM3.20595 0.164062L2.08777 1.28224L3.20595 2.40042L4.32412 1.28224L3.20595 0.164062Z"
        fill="#F3FF97" />
    <path d="M3.07395 0.238281L1.98315 1.32908L3.07395 2.41987L4.16474 1.32908L3.07395 0.238281Z"
        fill="#030206" />
    <path
        d="M3.0746 0.263423L4.13801 1.32683L3.0746 2.39024L2.01119 1.32683L3.0746 0.263423ZM3.0746 0.210938L1.95642 1.32912L3.0746 2.44729L4.19278 1.32912L3.0746 0.210938Z"
        fill="#F3FF97" />
    <path d="M2.94065 0.292969L1.84985 1.38376L2.94065 2.47456L4.03144 1.38376L2.94065 0.292969Z"
        fill="#030206" />
    <path
        d="M2.9413 0.320064L4.00471 1.38347L2.9413 2.44688L1.87789 1.38347L2.9413 0.320064ZM2.9413 0.267578L1.82312 1.38576L2.9413 2.50393L4.05948 1.38576L2.9413 0.267578Z"
        fill="#F3FF97" />
    <path d="M2.81137 0.355469L1.72058 1.44626L2.81137 2.53706L3.90217 1.44626L2.81137 0.355469Z"
        fill="#030206" />
    <path
        d="M2.81215 0.382893L3.87784 1.4463L2.81443 2.50971L1.74874 1.4463L2.81215 0.382893ZM2.81215 0.328125L1.69397 1.4463L2.81215 2.56448L3.93033 1.4463L2.81215 0.328125Z"
        fill="#F3FF97" />
    <path d="M2.6843 0.423828L1.59351 1.51462L2.6843 2.60542L3.77509 1.51462L2.6843 0.423828Z"
        fill="#030206" />
    <path
        d="M2.683 0.44897L3.74641 1.51238L2.683 2.57579L1.61959 1.51238L2.683 0.44897ZM2.683 0.396484L1.56482 1.51466L2.683 2.63284L3.80118 1.51466L2.683 0.396484Z"
        fill="#F3FF97" />
    <path d="M2.56125 0.496094L1.47046 1.58689L2.56125 2.67768L3.65205 1.58689L2.56125 0.496094Z"
        fill="#030206" />
    <path
        d="M2.55995 0.523189L3.62336 1.5866L2.55995 2.65229L1.49654 1.58888L2.55995 0.523189ZM2.55995 0.470703L1.44177 1.58888L2.55995 2.70706L3.67813 1.58888L2.55995 0.470703Z"
        fill="#F3FF97" />
    <path d="M2.43821 0.578125L1.34741 1.66892L2.43821 2.75971L3.529 1.66892L2.43821 0.578125Z"
        fill="#030206" />
    <path
        d="M2.4369 0.605549L3.50031 1.66896L2.4369 2.73237L1.37349 1.66896L2.4369 0.605549ZM2.4369 0.550781L1.31873 1.66896L2.4369 2.78714L3.55508 1.66896L2.43462 0.550781H2.4369Z"
        fill="#F3FF97" />
    <path d="M2.31919 0.666016L1.22839 1.75681L2.31919 2.8476L3.40998 1.75681L2.31919 0.666016Z"
        fill="#030206" />
    <path
        d="M2.31996 0.69344L3.38337 1.75685L2.31996 2.82254L1.25655 1.75913L2.31996 0.69344ZM2.31996 0.638672L1.20178 1.75685L2.31996 2.87503L3.43814 1.75685L2.31996 0.638672Z"
        fill="#F3FF97" />
    <path d="M2.20444 0.759766L1.11365 1.85056L2.20444 2.94135L3.29524 1.85056L2.20444 0.759766Z"
        fill="#030206" />
    <path
        d="M2.20509 0.78719L3.2685 1.8506L2.20509 2.91401L1.14168 1.8506L2.20509 0.78719ZM2.20509 0.732422L1.08691 1.8506L2.20509 2.96878L3.32327 1.8506L2.20509 0.732422Z"
        fill="#F3FF97" />
    <path d="M2.09165 0.859375L1.00085 1.95017L2.09165 3.04096L3.18244 1.95017L2.09165 0.859375Z"
        fill="#030206" />
    <path
        d="M2.0923 0.884517L3.15571 1.94793L2.0923 3.01362L1.02889 1.95021L2.0923 0.884517ZM2.0923 0.832031L0.974121 1.95021L2.0923 3.06839L3.21048 1.95021L2.0923 0.832031Z"
        fill="#F3FF97" />
    <path d="M1.98496 0.964844L0.894165 2.05564L1.98496 3.14643L3.07575 2.05564L1.98496 0.964844Z"
        fill="#030206" />
    <path
        d="M1.98573 0.991939L3.04914 2.05535L1.98573 3.11876L0.922322 2.05535L1.98573 0.991939ZM1.98573 0.939453L0.867554 2.05763L1.98573 3.17581L3.10391 2.05763L1.98573 0.939453Z"
        fill="#F3FF97" />
    <path d="M1.88242 1.07422L0.791626 2.16501L1.88242 3.25581L2.97321 2.16501L1.88242 1.07422Z"
        fill="#030206" />
    <path
        d="M1.88319 1.10131L2.9466 2.16472L1.88319 3.23042L0.819783 2.16701L1.88319 1.10131ZM1.88319 1.04883L0.765015 2.16701L1.88319 3.28518L3.00137 2.16701L1.88319 1.04883Z"
        fill="#F3FF97" />
    <path d="M1.78598 1.18945L0.69519 2.28025L1.78598 3.37104L2.87678 2.28025L1.78598 1.18945Z"
        fill="#030206" />
    <path
        d="M1.78676 1.21688L2.85017 2.28029L1.78676 3.3437L0.723347 2.28029L1.78676 1.21688ZM1.78676 1.16211L0.668579 2.28029L1.78676 3.39847L2.90494 2.28029L1.78676 1.16211Z"
        fill="#F3FF97" />
    <path d="M1.69785 1.30664L0.607056 2.39743L1.69785 3.48823L2.78864 2.39743L1.69785 1.30664Z"
        fill="#030206" />
    <path
        d="M1.69862 1.33406L2.76203 2.39747L1.69862 3.46089L0.635212 2.39747L1.69862 1.33406ZM1.69862 1.2793L0.580444 2.39747L1.69862 3.51565L2.8168 2.39747L1.69862 1.2793Z"
        fill="#F3FF97" />
    <path d="M1.61582 1.42773L0.525024 2.51853L1.61582 3.60932L2.70661 2.51853L1.61582 1.42773Z"
        fill="#030206" />
    <path
        d="M1.61659 1.45516L2.68 2.51857L1.61659 3.58198L0.553181 2.51857L1.61659 1.45516ZM1.61659 1.40039L0.498413 2.51857L1.61659 3.63675L2.73477 2.51857L1.61659 1.40039Z"
        fill="#F3FF97" />
    <path d="M1.53794 1.55078L0.447144 2.64158L1.53794 3.73237L2.62873 2.64158L1.53794 1.55078Z"
        fill="#030206" />
    <path
        d="M1.53859 1.57821L2.602 2.64162L1.53859 3.70503L0.475178 2.64162L1.53859 1.57821ZM1.53859 1.52344L0.42041 2.64162L1.53859 3.75979L2.65677 2.64162L1.53859 1.52344Z"
        fill="#F3FF97" />
    <path d="M1.46811 1.67969L0.377319 2.77048L1.46811 3.86128L2.55891 2.77048L1.46811 1.67969Z"
        fill="#030206" />
    <path
        d="M1.46681 1.70483L2.53022 2.76824L1.46681 3.83165L0.403401 2.76824L1.46681 1.70483ZM1.46681 1.65234L0.348633 2.77052L1.46681 3.8887L2.58499 2.77052L1.46681 1.65234Z"
        fill="#F3FF97" />
    <path d="M1.40256 1.80664L0.311768 2.89743L1.40256 3.98823L2.49336 2.89743L1.40256 1.80664Z"
        fill="#030206" />
    <path
        d="M1.40549 1.83406L2.4689 2.89747L1.40549 3.96088L0.339802 2.89747L1.40321 1.83406H1.40549ZM1.40549 1.7793L0.285034 2.89976L1.40321 4.01793L2.52139 2.89976L1.40321 1.78158L1.40549 1.7793Z"
        fill="#F3FF97" />
    <path d="M1.34922 1.9375L0.258423 3.02829L1.34922 4.11909L2.44001 3.02829L1.34922 1.9375Z"
        fill="#030206" />
    <path
        d="M1.34791 1.96492L2.41132 3.02833L1.34791 4.09174L0.282222 3.02833L1.34791 1.96492ZM1.34791 1.91016L0.229736 3.02833L1.34791 4.14651L2.46609 3.02833L1.34791 1.91016Z"
        fill="#F3FF97" />
    <path d="M1.29587 2.06836L0.205078 3.15915L1.29587 4.24995L2.38667 3.15915L1.29587 2.06836Z"
        fill="#030206" />
    <path
        d="M1.29664 2.09774L2.36005 3.16115L1.29664 4.22456L0.230953 3.16115L1.29664 2.09774ZM1.29664 2.04297L0.178467 3.16115L1.29664 4.27933L2.41482 3.16115L1.29664 2.04297Z"
        fill="#F3FF97" />
    <path
        d="M1.25311 2.20508L0.160034 3.29587L1.25083 4.38667L2.34162 3.29587L1.25083 2.20508H1.25311Z"
        fill="#030206" />
    <path
        d="M1.25148 2.23022L2.31489 3.29363L1.25148 4.35704L0.188069 3.29363L1.25148 2.23022ZM1.25148 2.17773L0.133301 3.29591L1.25148 4.41409L2.36966 3.29591L1.25148 2.17773Z"
        fill="#F3FF97" />
    <path
        d="M1.21405 2.33984L0.120972 3.43292L1.21177 4.52371L2.30256 3.43292L1.21177 2.34213L1.21405 2.33984Z"
        fill="#030206" />
    <path
        d="M1.21461 2.36727L2.27802 3.43068L1.21461 4.49409L0.148921 3.43296L1.21233 2.36955L1.21461 2.36727ZM1.21461 2.3125L0.0964355 3.43296L1.21461 4.55114L2.33279 3.43296L1.21461 2.31478V2.3125Z"
        fill="#F3FF97" />
    <path d="M1.18308 2.48047L0.0922852 3.57126L1.18308 4.66206L2.27387 3.57126L1.18308 2.48047Z"
        fill="#030206" />
    <path
        d="M1.18178 2.50789L2.24519 3.5713L1.18178 4.63699L0.118367 3.5713L1.18178 2.50789ZM1.18178 2.45312L0.0635986 3.5713L1.18178 4.68948L2.29995 3.5713L1.18178 2.45312Z"
        fill="#F3FF97" />
    <path d="M1.15647 2.61914L0.0656738 3.70993L1.15647 4.80073L2.24726 3.70993L1.15647 2.61914Z"
        fill="#030206" />
    <path
        d="M1.15712 2.64428L2.22053 3.70769L1.15712 4.7711L0.0914263 3.70998L1.15484 2.64656L1.15712 2.64428ZM1.15712 2.5918L0.0389404 3.70998L1.15712 4.82815L2.2753 3.70998L1.15712 2.5918Z"
        fill="#F3FF97" />
    <path
        d="M1.13824 2.75586L0.045166 3.84894L1.13596 4.93973L2.22675 3.84894L1.13596 2.75814L1.13824 2.75586Z"
        fill="#030206" />
    <path
        d="M1.13889 2.78295L2.2023 3.84636L1.13889 4.90977L0.0732005 3.84865L1.13661 2.78524L1.13889 2.78295ZM1.13889 2.73047L0.0184326 3.84865L1.13661 4.96682L2.25479 3.84865L1.13661 2.73047H1.13889Z"
        fill="#F3FF97" />
    <path d="M1.12571 2.89648L0.0349121 3.98728L1.12571 5.07807L2.2165 3.98728L1.12571 2.89648Z"
        fill="#030206" />
    <path
        d="M1.1244 2.92391L2.18781 3.98732L1.1244 5.05301L0.0609935 3.9896L1.1244 2.92391ZM1.1244 2.86914L0.00622559 3.9896L1.1244 5.10778L2.24258 3.9896L1.1244 2.87142V2.86914Z"
        fill="#F3FF97" />
    <path
        d="M1.11753 3.03711L0.0267334 4.13019L1.11753 5.22098L2.20832 4.13019L1.11753 3.03939V3.03711Z"
        fill="#030206" />
    <path
        d="M1.11818 3.0642L2.18159 4.12761L1.11818 5.19102L0.0547679 4.1299L1.11818 3.06649V3.0642ZM1.11818 3.01172L0 4.1299L1.11818 5.24807L2.23636 4.1299L1.11818 3.01172Z"
        fill="#F3FF97" />
    <path
        d="M1.11753 3.17773L0.0267334 4.27081L1.11753 5.3616L2.20832 4.27081L1.11753 3.18002V3.17773Z"
        fill="#030206" />
    <path
        d="M1.11818 3.20516L2.18159 4.26857L1.11818 5.33198L0.0547679 4.26857L1.11818 3.20516ZM1.11818 3.15039L0 4.27085L1.11818 5.38903L2.23636 4.27085L1.11818 3.15267V3.15039Z"
        fill="#F3FF97" />
    <path
        d="M1.12591 3.31641L0.0328369 4.40948L1.12363 5.50028L2.21442 4.40948L1.12363 3.31869L1.12591 3.31641Z"
        fill="#030206" />
    <path
        d="M1.1244 3.34545L2.18781 4.40886L1.1244 5.47227L0.0609935 4.41115L1.1244 3.34774V3.34545ZM1.1244 3.29297L0.00622559 4.41115L1.1244 5.52932L2.24258 4.41115L1.1244 3.29297Z"
        fill="#F3FF97" />
    <path d="M1.13596 3.45898L0.045166 4.54978L1.13596 5.64057L2.22675 4.54978L1.13596 3.45898Z"
        fill="#030206" />
    <path
        d="M1.13889 3.48641L2.2023 4.54982L1.13889 5.61323L0.0732005 4.54982L1.13661 3.48641H1.13889ZM1.13889 3.43164L0.0184326 4.54982L1.13661 5.668L2.25479 4.54982L1.13661 3.43164H1.13889Z"
        fill="#F3FF97" />
    <path
        d="M1.15667 3.59766L0.0635986 4.68845L1.15439 5.77924L2.24519 4.68845L1.15439 3.59766H1.15667Z"
        fill="#030206" />
    <path
        d="M1.15712 3.62508L2.22053 4.68849L1.15712 5.7519L0.0914263 4.68849L1.15484 3.62508H1.15712ZM1.15712 3.57031L0.0389404 4.68849L1.15712 5.80667L2.2753 4.68849L1.15712 3.57031Z"
        fill="#F3FF97" />
    <path d="M1.18308 3.73633L0.0922852 4.82712L1.18308 5.91792L2.27387 4.82712L1.18308 3.73633Z"
        fill="#030206" />
    <path
        d="M1.18178 3.76147L2.24519 4.82488L1.18178 5.88829L0.118367 4.82716L1.18178 3.76147ZM1.18178 3.70898L0.0635986 4.82716L1.18178 5.94534L2.29995 4.82716L1.18178 3.70898Z"
        fill="#F3FF97" />
    <path d="M1.21384 3.875L0.123047 4.96808L1.21384 6.05887L2.30463 4.96808L1.21384 3.87728V3.875Z"
        fill="#030206" />
    <path
        d="M1.21461 3.9021L2.27802 4.96551L1.21461 6.02892L0.148921 4.96551L1.21233 3.9021H1.21461ZM1.21461 3.84961L0.0964355 4.96779L1.21461 6.08597L2.33279 4.96779L1.21461 3.84961Z"
        fill="#F3FF97" />
    <path d="M1.25083 4.01172L0.160034 5.10251L1.25083 6.19331L2.34162 5.10251L1.25083 4.01172Z"
        fill="#030206" />
    <path
        d="M1.25148 4.03914L2.31489 5.10255L1.25148 6.16824L0.188069 5.10483L1.25148 4.03914ZM1.25148 3.98438L0.133301 5.10483L1.25148 6.22301L2.36966 5.10483L1.25148 3.98666V3.98438Z"
        fill="#F3FF97" />
    <path d="M1.29587 4.14648L0.205078 5.23728L1.29587 6.32807L2.38667 5.23728L1.29587 4.14648Z"
        fill="#030206" />
    <path
        d="M1.29664 4.17163L2.36005 5.23504L1.29664 6.29845L0.230953 5.23504L1.29664 4.16934V4.17163ZM1.29664 4.11914L0.178467 5.23732L1.29664 6.3555L2.41482 5.23732L1.29664 4.11914Z"
        fill="#F3FF97" />
    <path d="M1.34922 4.27734L0.258423 5.36814L1.34922 6.45893L2.44001 5.36814L1.34922 4.27734Z"
        fill="#030206" />
    <path
        d="M1.34791 4.30477L2.41132 5.36818L1.34791 6.43159L0.282222 5.36818L1.34791 4.30477ZM1.34791 4.25L0.229736 5.36818L1.34791 6.48636L2.46609 5.36818L1.34791 4.25Z"
        fill="#F3FF97" />
    <path d="M1.40659 4.41016L0.315796 5.50095L1.40659 6.59174L2.49738 5.50095L1.40659 4.41016Z"
        fill="#030206" />
    <path
        d="M1.40529 4.4353L2.4687 5.49871L1.40529 6.56212L0.341877 5.49871L1.40529 4.4353ZM1.40529 4.38281L0.287109 5.50099L1.40529 6.61917L2.52347 5.50099L1.40529 4.38281Z"
        fill="#F3FF97" />
    <path d="M1.46811 4.53906L0.377319 5.62986L1.46811 6.72065L2.55891 5.62986L1.46811 4.53906Z"
        fill="#030206" />
    <path
        d="M1.46681 4.56453L2.53022 5.62794L1.46681 6.69135L0.403401 5.62794L1.46681 4.56453ZM1.46681 4.50977L0.348633 5.62794L1.46681 6.74612L2.58499 5.62794L1.46681 4.50977Z"
        fill="#F3FF97" />
    <path d="M1.53794 4.66406L0.447144 5.75486L1.53794 6.84565L2.62873 5.75486L1.53794 4.66406Z"
        fill="#030206" />
    <path
        d="M1.53859 4.69116L2.602 5.75457L1.53859 6.81798L0.475178 5.75457L1.53859 4.69116ZM1.53859 4.63867L0.42041 5.75685L1.53859 6.87503L2.65677 5.75685L1.53859 4.63867Z"
        fill="#F3FF97" />
    <path d="M1.61582 4.78906L0.525024 5.87986L1.61582 6.97065L2.70661 5.87986L1.61582 4.78906Z"
        fill="#030206" />
    <path
        d="M1.61659 4.8142L2.68 5.87761L1.61659 6.94103L0.553181 5.87761L1.61659 4.8142ZM1.61659 4.76172L0.498413 5.8799L1.61659 6.99808L2.73477 5.8799L1.61659 4.76172Z"
        fill="#F3FF97" />
    <path d="M1.69785 4.9082L0.607056 5.999L1.69785 7.08979L2.78864 5.999L1.69785 4.9082Z"
        fill="#030206" />
    <path
        d="M1.69862 4.9353L2.76203 5.99871L1.69862 7.0644L0.635212 6.00099L1.69862 4.9353ZM1.69862 4.88281L0.580444 6.00099L1.69862 7.11917L2.8168 6.00099L1.69862 4.88281Z"
        fill="#F3FF97" />
    <path d="M1.78598 5.02734L0.69519 6.11814L1.78598 7.20893L2.87678 6.11814L1.78598 5.02734Z"
        fill="#030206" />
    <path
        d="M1.78676 5.05477L2.85017 6.11818L1.78676 7.18159L0.723347 6.11818L1.78676 5.05477ZM1.78676 5L0.668579 6.11818L1.78676 7.23636L2.90494 6.11818L1.78676 5Z"
        fill="#F3FF97" />
    <path d="M1.88242 5.14062L0.791626 6.23142L1.88242 7.32221L2.97321 6.23142L1.88242 5.14062Z"
        fill="#030206" />
    <path
        d="M1.88319 5.16805L2.9466 6.23146L1.88319 7.29487L0.819783 6.23146L1.88319 5.16805ZM1.88319 5.11328L0.765015 6.23146L1.88319 7.34964L3.00137 6.23146L1.88319 5.11328Z"
        fill="#F3FF97" />
    <path d="M1.98288 5.25L0.89209 6.34079L1.98288 7.43159L3.07368 6.34079L1.98288 5.25Z"
        fill="#030206" />
    <path
        d="M1.98573 5.2771L3.04914 6.34051L1.98573 7.4062L0.922322 6.34279L1.98573 5.2771ZM1.98573 5.22461L0.867554 6.34279L1.98573 7.46097L3.10391 6.34279L1.98573 5.22461Z"
        fill="#F3FF97" />
    <path d="M2.09165 5.35742L1.00085 6.44822L2.09165 7.53901L3.18244 6.44822L2.09165 5.35742Z"
        fill="#030206" />
    <path
        d="M2.0923 5.38485L3.15571 6.44826L2.0923 7.51395L1.02889 6.45054L2.0923 5.38485ZM2.0923 5.33008L0.974121 6.44826L2.0923 7.56643L3.21048 6.44826L2.0923 5.33008Z"
        fill="#F3FF97" />
    <path d="M2.20444 5.45508L1.11365 6.54587L2.20444 7.63667L3.29524 6.54587L2.20444 5.45508Z"
        fill="#030206" />
    <path
        d="M2.20509 5.48446L3.2685 6.54787L2.20509 7.61128L1.14168 6.54787L2.20509 5.48446ZM2.20509 5.42969L1.08691 6.54787L2.20509 7.66604L3.32327 6.54787L2.20509 5.42969Z"
        fill="#F3FF97" />
    <path d="M2.32126 5.54883L1.23047 6.63962L2.32126 7.73042L3.41206 6.63962L2.32126 5.54883Z"
        fill="#030206" />
    <path
        d="M2.31996 5.57592L3.38337 6.63933L2.31996 7.70503L1.25655 6.64162L2.31996 5.57592ZM2.31996 5.52344L1.20178 6.64162L2.31996 7.75979L3.43814 6.64162L2.31996 5.52344Z"
        fill="#F3FF97" />
    <path d="M2.43821 5.63867L1.34741 6.72947L2.43821 7.82026L3.529 6.72947L2.43821 5.63867Z"
        fill="#030206" />
    <path
        d="M2.4369 5.66381L3.50031 6.72722L2.4369 7.79063L1.37349 6.72722L2.4369 5.66381ZM2.4369 5.61133L1.31873 6.72951L2.4369 7.84768L3.55508 6.72951L2.43462 5.61133H2.4369Z"
        fill="#F3FF97" />
    <path d="M2.56125 5.71875L1.47046 6.80954L2.56125 7.90034L3.65205 6.80954L2.56125 5.71875Z"
        fill="#030206" />
    <path
        d="M2.55995 5.74585L3.62336 6.80926L2.55995 7.87495L1.49654 6.81154L2.55995 5.74585ZM2.55995 5.69336L1.44177 6.81154L2.55995 7.92972L3.67813 6.81154L2.55995 5.69336Z"
        fill="#F3FF97" />
    <path d="M2.6843 5.79297L1.59351 6.88376L2.6843 7.97456L3.77509 6.88376L2.6843 5.79297Z"
        fill="#030206" />
    <path
        d="M2.683 5.82039L3.74641 6.8838L2.683 7.94721L1.61959 6.8838L2.683 5.82039ZM2.683 5.76562L1.56482 6.8838L2.683 8.00198L3.80118 6.8838L2.683 5.76562Z"
        fill="#F3FF97" />
    <path d="M2.81137 5.86133L1.72058 6.95212L2.81137 8.04292L3.90217 6.95212L2.81137 5.86133Z"
        fill="#030206" />
    <path
        d="M2.81215 5.88647L3.87784 6.95216L2.81443 8.01557L1.74874 6.95216L2.81215 5.88647ZM2.81215 5.83398L1.69397 6.95216L2.81215 8.07034L3.93033 6.95216L2.80987 5.83398H2.81215Z"
        fill="#F3FF97" />
    <path d="M2.94065 5.92188L1.84985 7.01267L2.94065 8.10346L4.03144 7.01267L2.94065 5.92188Z"
        fill="#030206" />
    <path
        d="M2.9413 5.94897L4.00471 7.01238L2.9413 8.07807L1.87789 7.01466L2.9413 5.94897ZM2.9413 5.89648L1.82312 7.01466L2.9413 8.13284L4.05948 7.01466L2.9413 5.89648Z"
        fill="#F3FF97" />
    <path d="M3.07187 5.97656L1.98108 7.06736L3.07187 8.15815L4.16267 7.06736L3.07187 5.97656Z"
        fill="#030206" />
    <path
        d="M3.0746 6.00594L4.13801 7.06935L3.0746 8.13276L2.01119 7.06935L3.0746 6.00594ZM3.0746 5.95117L1.95642 7.06935L3.0746 8.18753L4.19278 7.06935L3.0746 5.95117Z"
        fill="#F3FF97" />
    <path d="M3.20725 6.02539L2.11646 7.11618L3.20725 8.20698L4.29804 7.11618L3.20725 6.02539Z"
        fill="#030206" />
    <path
        d="M3.20595 6.05281L4.26936 7.11622L3.20595 8.18192L2.14254 7.11851L3.20595 6.05281ZM3.20595 5.99805L2.08777 7.11622L3.20595 8.2344L4.32412 7.11622L3.20595 5.99805Z"
        fill="#F3FF97" />
    <path d="M3.34055 6.06836L2.24976 7.15915L3.34055 8.24995L4.43134 7.15915L3.34055 6.06836Z"
        fill="#030206" />
    <path
        d="M3.3412 6.0935L4.40461 7.15691L3.3412 8.22032L2.27779 7.15691L3.3412 6.0935ZM3.3412 6.04102L2.22302 7.15919L3.3412 8.27737L4.45938 7.15919L3.3412 6.04102Z"
        fill="#F3FF97" />
    <path d="M3.47788 6.10547L2.38708 7.19626L3.47788 8.28706L4.56867 7.19626L3.47788 6.10547Z"
        fill="#030206" />
    <path
        d="M3.47865 6.13061L4.54206 7.19402L3.47865 8.25743L2.41524 7.19402L3.47865 6.13061ZM3.47865 6.07812L2.36047 7.1963L3.47865 8.31448L4.59683 7.1963L3.47865 6.07812Z"
        fill="#F3FF97" />
    <path d="M3.61533 6.13477L2.52454 7.22556L3.61533 8.31635L4.70612 7.22556L3.61533 6.13477Z"
        fill="#030206" />
    <path
        d="M3.61403 6.16024L4.67744 7.22365L3.61403 8.28706L2.55062 7.22365L3.61403 6.16024ZM3.61403 6.10547L2.49585 7.22365L3.61403 8.34182L4.73221 7.22365L3.61403 6.10547Z"
        fill="#F3FF97" />
    <path d="M3.75681 6.1582L2.66602 7.249L3.75681 8.33979L4.8476 7.249L3.75681 6.1582Z"
        fill="#030206" />
    <path
        d="M3.75343 6.18335L4.81684 7.24676L3.75343 8.31017L2.69002 7.24676L3.75343 6.18335ZM3.75343 6.13086L2.63525 7.24904L3.75343 8.36722L4.87161 7.24904L3.75343 6.13086Z"
        fill="#F3FF97" />
    <path d="M3.89634 6.17383L2.80554 7.26462L3.89634 8.35542L4.98713 7.26462L3.89634 6.17383Z"
        fill="#030206" />
    <path
        d="M3.89491 6.20125L4.95832 7.26466L3.89491 8.33035L2.8315 7.26694L3.89491 6.20125ZM3.89491 6.14648L2.77673 7.26466L3.89491 8.38284L5.01309 7.26466L3.89491 6.14648Z"
        fill="#F3FF97" />
    <path d="M4.03367 6.18555L2.94287 7.27634L4.03367 8.36714L5.12446 7.27634L4.03367 6.18555Z"
        fill="#030206" />
    <path
        d="M4.03444 6.21069L5.09785 7.2741L4.03444 8.33751L2.97103 7.2741L4.03444 6.21069ZM4.03444 6.1582L2.91626 7.27638L4.03444 8.39456L5.15262 7.27638L4.03444 6.1582Z"
        fill="#F3FF97" />
    <path d="M4.17514 6.18945L3.08435 7.28025L4.17514 8.37104L5.26594 7.28025L4.17514 6.18945Z"
        fill="#030206" />
    <path
        d="M4.17592 6.2146L5.23933 7.27801L4.17592 8.34142L3.11251 7.27801L4.17592 6.21231V6.2146ZM4.17592 6.16211L3.05774 7.28029L4.17592 8.39847L5.2941 7.28029L4.17592 6.16211Z"
        fill="#F3FF97" />
    <path d="M4.31467 6.18555L3.22388 7.27634L4.31467 8.36714L5.40546 7.27634L4.31467 6.18555Z"
        fill="#030206" />
    <path
        d="M4.3174 6.21492L5.38081 7.27833L4.3174 8.34403L3.25399 7.28062L4.3174 6.21492ZM4.3174 6.16016L3.19922 7.27833L4.3174 8.39651L5.43557 7.27833L4.3174 6.16016Z"
        fill="#F3FF97" />
    <path d="M4.45615 6.17969L3.36536 7.27048L4.45615 8.36128L5.54694 7.27048L4.45615 6.17969Z"
        fill="#030206" />
    <path
        d="M4.45692 6.20711L5.52033 7.27052L4.45692 8.33393L3.39351 7.27052L4.45692 6.20711ZM4.45692 6.15234L3.33875 7.27052L4.45692 8.3887L5.5751 7.27052L4.45692 6.15234Z"
        fill="#F3FF97" />
    <path d="M4.59555 6.16602L3.50476 7.25681L4.59555 8.3476L5.68635 7.25681L4.59555 6.16602Z"
        fill="#030206" />
    <path
        d="M4.59633 6.19116L5.65974 7.25685L4.59633 8.32026L3.53292 7.25685L4.59633 6.19116ZM4.59633 6.13867L3.47815 7.25685L4.59633 8.37503L5.71451 7.25685L4.59633 6.13867Z"
        fill="#F3FF97" />
    <path d="M4.73508 6.14258L3.64429 7.23337L4.73508 8.32417L5.82588 7.23337L4.73508 6.14258Z"
        fill="#030206" />
    <path
        d="M4.73573 6.17L5.79914 7.23341L4.73573 8.29682L3.67232 7.23341L4.73573 6.17ZM4.73573 6.11523L3.61755 7.23341L4.73573 8.35159L5.85391 7.23341L4.73573 6.11523Z"
        fill="#F3FF97" />
    <path d="M4.87449 6.11523L3.78369 7.20603L4.87449 8.29682L5.96528 7.20603L4.87449 6.11523Z"
        fill="#030206" />
    <path
        d="M4.87526 6.14266L5.93867 7.20607L4.87526 8.26948L3.81185 7.20607L4.87526 6.14266ZM4.87526 6.08789L3.75708 7.20607L4.87526 8.32425L5.99344 7.20607L4.87526 6.08789Z"
        fill="#F3FF97" />
    <path d="M5.01194 6.08008L3.92114 7.17087L5.01194 8.26167L6.10273 7.17087L5.01194 6.08008Z"
        fill="#030206" />
    <path
        d="M5.01063 6.1075L6.07404 7.17091L5.01063 8.23432L3.94722 7.17091L5.01063 6.1075ZM5.01063 6.05273L3.89246 7.17091L5.01063 8.28909L6.12881 7.17091L5.01063 6.05273Z"
        fill="#F3FF97" />
    <path d="M5.14524 6.03906L4.05444 7.12986L5.14524 8.22065L6.23603 7.12986L5.14524 6.03906Z"
        fill="#030206" />
    <path
        d="M5.14796 6.06616L6.21137 7.12957L5.14796 8.19298L4.08455 7.12957L5.14796 6.06616ZM5.14796 6.01367L4.02979 7.13185L5.14796 8.25003L6.26614 7.13185L5.14796 6.01367Z"
        fill="#F3FF97" />
    <path d="M5.28061 5.99414L4.18982 7.08493L5.28061 8.17573L6.37141 7.08493L5.28061 5.99414Z"
        fill="#030206" />
    <path
        d="M5.28126 6.02156L6.34467 7.08497L5.28126 8.15067L4.21785 7.08726L5.28126 6.02156ZM5.28126 5.9668L4.16309 7.08497L5.28126 8.20315L6.39944 7.08497L5.28126 5.9668Z"
        fill="#F3FF97" />
    <path d="M5.41599 5.94141L4.3252 7.0322L5.41599 8.12299L6.50678 7.0322L5.41599 5.94141Z"
        fill="#030206" />
    <path
        d="M5.41456 5.96655L6.47797 7.02996L5.41456 8.09337L4.35115 7.02996L5.41456 5.96655ZM5.41456 5.91406L4.29639 7.03224L5.41456 8.15042L6.53274 7.03224L5.41456 5.91406Z"
        fill="#F3FF97" />
    <path d="M5.54514 5.88281L4.45435 6.97361L5.54514 8.0644L6.63593 6.97361L5.54514 5.88281Z"
        fill="#030206" />
    <path
        d="M5.54591 5.90795L6.60932 6.97136L5.54591 8.03477L4.4825 6.97136L5.54591 5.90795ZM5.54591 5.85547L4.42773 6.97365L5.54591 8.09182L6.66409 6.97365L5.54591 5.85547Z"
        fill="#F3FF97" />
    <path d="M5.67234 5.81641L4.58154 6.9072L5.67234 7.99799L6.76313 6.9072L5.67234 5.81641Z"
        fill="#030206" />
    <path
        d="M5.67299 5.84383L6.7364 6.90724L5.67299 7.97065L4.60958 6.90724L5.67299 5.84383ZM5.67299 5.78906L4.55481 6.90724L5.67299 8.02542L6.79117 6.90724L5.67299 5.78906Z"
        fill="#F3FF97" />
    <path d="M5.79941 5.74219L4.70862 6.83298L5.79941 7.92378L6.89021 6.83298L5.79941 5.74219Z"
        fill="#030206" />
    <path
        d="M5.79811 5.77124L6.86152 6.83465L5.79811 7.89806L4.7347 6.83465L5.79811 5.77124ZM5.79811 5.71875L4.67993 6.83693L5.79811 7.95511L6.91629 6.83693L5.79811 5.71875Z"
        fill="#F3FF97" />
    <path d="M5.92038 5.66602L4.82959 6.75681L5.92038 7.8476L7.01118 6.75681L5.92038 5.66602Z"
        fill="#030206" />
    <path
        d="M5.91908 5.69344L6.98249 6.75685L5.91908 7.82026L4.85567 6.75685L5.91908 5.69344ZM5.91908 5.63867L4.8009 6.75685L5.91908 7.87503L7.03726 6.75685L5.91908 5.63867Z"
        fill="#F3FF97" />
    <path d="M6.03733 5.58008L4.94653 6.67087L6.03733 7.76167L7.12812 6.67087L6.03733 5.58008Z"
        fill="#030206" />
    <path
        d="M6.0381 5.60522L7.10151 6.66863L6.0381 7.73432L4.97469 6.67091L6.0381 5.60522ZM6.0381 5.55273L4.91992 6.67091L6.0381 7.78909L7.15628 6.67091L6.0381 5.55273Z"
        fill="#F3FF97" />
    <path d="M6.15427 5.49023L5.06348 6.58103L6.15427 7.67182L7.24506 6.58103L6.15427 5.49023Z"
        fill="#030206" />
    <path
        d="M6.157 5.51538L7.22041 6.57879L6.157 7.6422L5.09359 6.57879L6.157 5.51538ZM6.157 5.46289L5.03882 6.58107L6.157 7.69925L7.27517 6.58107L6.157 5.46289Z"
        fill="#F3FF97" />
    <path d="M6.26902 5.39062L5.17822 6.48142L6.26902 7.57221L7.35981 6.48142L6.26902 5.39062Z"
        fill="#030206" />
    <path
        d="M6.26771 5.41805L7.33112 6.48146L6.26771 7.54487L5.2043 6.48146L6.26771 5.41805ZM6.26771 5.36328L5.14954 6.48146L6.26771 7.59964L7.38589 6.48146L6.26771 5.36328Z"
        fill="#F3FF97" />
    <path d="M6.37778 5.28711L5.28699 6.3779L6.37778 7.4687L7.46857 6.3779L6.37778 5.28711Z"
        fill="#030206" />
    <path
        d="M6.37843 5.31453L7.44184 6.37794L6.37843 7.44135L5.31502 6.37794L6.37843 5.31453ZM6.37843 5.25977L5.26025 6.37794L6.37843 7.49612L7.49661 6.37794L6.37843 5.25977Z"
        fill="#F3FF97" />
</svg>