<svg width="106" height="28" viewBox="0 0 106 28" fill="none" xmlns="http://www.w3.org/2000/svg">
    <path
        d="M46.0117 5.58165C52.0696 5.58165 56.9982 10.5894 56.9982 16.7449C56.9982 22.9005 52.0696 27.9083 46.0117 27.9083C39.9543 27.9083 35.0256 22.9005 35.0256 16.7449C35.0256 10.5894 39.9543 5.58165 46.0117 5.58165ZM80.4227 0C80.7549 3.6471e-06 81.0249 0.273403 81.0249 0.610934V16.7449L81.0238 16.889C80.9471 22.9784 76.0493 27.9082 70.0393 27.9083C63.9816 27.9083 59.0527 22.9005 59.0527 16.7449C59.0527 10.5894 63.9816 5.58165 70.0393 5.58165C72.0382 5.58167 73.9149 6.12733 75.5315 7.07972V0.610934C75.5315 0.273401 75.8016 0 76.1327 0H80.4227ZM94.066 5.58165C100.124 5.58165 105.052 10.5894 105.052 16.7449C105.052 22.9005 100.124 27.9083 94.066 27.9083C88.0071 27.9082 83.0793 22.9005 83.0793 16.7449C83.0793 10.5894 88.0071 5.58165 94.066 5.58165ZM23.2599 5.58221C28.6054 5.52928 32.9706 9.93255 32.9706 15.353V26.902C32.9706 27.2396 32.7014 27.5132 32.3699 27.5132H28.0788C27.7472 27.5132 27.4774 27.2396 27.4774 26.902V15.4313C27.4774 13.1437 25.7049 11.2185 23.4543 11.1644C21.1354 11.1086 19.2321 13.0092 19.2321 15.353V26.902C19.2321 26.9126 19.2319 26.9231 19.2313 26.9336C19.2303 26.9544 19.2282 26.975 19.2252 26.9952C19.2207 27.0255 19.2139 27.0551 19.2051 27.0839C19.129 27.3326 18.9008 27.5131 18.6309 27.5132H14.3403C14.1942 27.5131 14.0603 27.4602 13.9562 27.3721C13.868 27.2976 13.801 27.1979 13.7661 27.0839C13.7573 27.0551 13.7506 27.0255 13.746 26.9952C13.743 26.975 13.7409 26.9544 13.7399 26.9336C13.7393 26.9231 13.7391 26.9126 13.7391 26.902V15.4313C13.7391 13.1437 11.9664 11.2185 9.71534 11.1644C7.397 11.1086 5.49311 13.0092 5.49311 15.353V26.902C5.49311 27.2396 5.224 27.5131 4.89189 27.5132H0.601444C0.269222 27.5132 0 27.2396 0 26.902V15.4771C0 10.0977 4.22756 5.63395 9.52156 5.58221C12.2574 5.55513 14.7363 6.69548 16.5048 8.54194C18.2241 6.74123 20.6082 5.60813 23.2599 5.58221ZM46.0117 11.1633C42.9827 11.1633 40.5186 13.6672 40.5186 16.7449C40.5187 19.8228 42.9828 22.3266 46.0117 22.3266C49.0406 22.3266 51.5047 19.8228 51.5047 16.7449C51.5047 13.6672 49.0406 11.1633 46.0117 11.1633ZM70.0393 11.1633C67.0104 11.1633 64.546 13.6672 64.546 16.7449C64.546 19.8228 67.0104 22.3266 70.0393 22.3266C73.0438 22.3266 75.4938 19.8617 75.5315 16.8169V16.7449V16.6617C75.4871 13.6221 73.0404 11.1633 70.0393 11.1633ZM94.066 11.1633C91.036 11.1633 88.5727 13.6672 88.5727 16.7449C88.5727 19.8228 91.036 22.3266 94.066 22.3266C97.0949 22.3266 99.5582 19.8228 99.5582 16.7449C99.5582 13.6672 97.0949 11.1633 94.066 11.1633Z"
        fill="#1B2021" />
</svg>