<svg width="44" height="23" viewBox="0 0 44 23" fill="none" xmlns="http://www.w3.org/2000/svg">
    <path
        d="M14.6481 14.8882C14.6481 18.998 11.3692 22.3304 7.32408 22.3304C3.27893 22.3304 0 18.998 0 14.8882C0 10.7778 3.27893 7.44604 7.32408 7.44604C11.3692 7.44604 14.6481 10.7778 14.6481 14.8882ZM26.0776 21.8564L25.8802 21.9364C22.6476 23.2472 18.9809 21.6471 17.691 18.3623L13.9589 8.85902C12.669 5.57427 14.2437 1.84905 17.4762 0.538316L17.6736 0.45776C20.9068 -0.852979 24.5729 0.747075 25.8629 4.03243L29.5949 13.5351C30.8854 16.8199 29.3102 20.5457 26.0776 21.8564ZM42.077 21.9352H32.816C31.8339 21.9352 31.0382 21.1266 31.0382 20.1288V2.26539C31.0382 1.26807 31.8339 0.458934 32.816 0.458934H42.077C43.059 0.458934 43.8548 1.26807 43.8548 2.26539V20.1288C43.8548 21.1266 43.059 21.9352 42.077 21.9352Z"
        fill="#F48656" />
</svg>